<?xml version="1.0" encoding="UTF-8"?>
<svg id="Layer_1" xmlns="http://www.w3.org/2000/svg" version="1.1" viewBox="0 0 468.8 489.4">
  <!-- Generator: Adobe Illustrator 29.5.1, SVG Export Plug-In . SVG Version: 2.1.0 Build 141)  -->
  <defs>
    <style>
      .st0 {
        fill: #fff;
      }

      .st1 {
        fill: #c1272d;
      }

      .st2 {
        fill: #0f4e73;
      }
    </style>
  </defs>
  <g>
    <path class="st2" d="M413.2,124.3L252.5,36.2c-11.7-6.4-25.7-6.4-37.3,0L54.5,124.3c-12.4,6.8-20.2,19.9-20.2,34.1v173.9c0,14.2,7.7,27.2,20.2,34.1l160.7,88.1c5.7,3.1,12.2,4.8,18.7,4.8s12.9-1.7,18.7-4.8l160.7-88.1c12.4-6.8,20.2-19.9,20.2-34.1v-173.9c0-14.2-7.7-27.2-20.2-34.1ZM406.8,158.4v173.9c0,4.5-2.4,8.6-6.4,10.7l-160.7,88.1c-3.7,2-8.1,2-11.8,0l-160.7-88.1c-3.9-2.1-6.4-6.3-6.4-10.7v-173.9c0-4.5,2.4-8.6,6.4-10.7L228,59.5c1.8-1,3.8-1.5,5.9-1.5s4.1.5,5.9,1.5l160.7,88.1c3.9,2.1,6.4,6.3,6.4,10.7Z"/>
    <path class="st2" d="M338.7,213.3c-.6-42.2-35.2-76.4-77.5-76.4s-56.1,16.6-69.1,42.4c-.9,0-1.9,0-2.8,0-20.6,0-38.7,13.4-44.9,32.8-1.8-.2-3.7-.3-5.5-.3-33.6,0-60.9,27.3-60.9,60.9s21.5,55.3,51.1,60.1c1.5.5,3,.8,4.6.8h66.7c9.2,21.8,30.7,37.1,55.8,37.1s46.7-15.3,55.8-37.1h16.4c.8,0,1.7,0,2.5-.2,15.2-1.3,29.2-8.2,39.5-19.4,10.4-11.3,16.1-25.9,16.1-41.3,0-28.7-19.9-53.4-47.8-59.5ZM256.1,249.8c-32.2,0-58.5,25.2-60.4,56.9h-59.3c-.4,0-.9-.2-1.3-.2-17.2-1.9-30.1-16.4-30.1-33.7s15.2-33.9,33.9-33.9,8.2.8,12.1,2.2c4.3,1.6,9.1,1,12.8-1.7,3.7-2.7,5.8-7.1,5.5-11.7,0-.4,0-.9,0-1.3,0-11.1,9-20.1,20.1-20.1s4.5.4,6.6,1.1c3.4,1.2,7.2.9,10.4-.7,3.2-1.6,5.7-4.5,6.8-7.9,6.8-20.9,26.1-34.9,48-34.9s50.5,22.7,50.5,50.5-.3,5.8-.8,8.7c-.7,4,.4,8.1,3.1,11.1,2.7,3.1,6.6,4.8,10.6,4.7h.6c.1,0,.2,0,.3,0,18.7,0,33.9,15.2,33.9,33.9s-14,32.8-31.9,33.9h0c-.3,0-.5,0-.8,0h-10.3c-1.9-31.7-28.2-56.9-60.4-56.9Z"/>
  </g>
  <circle class="st1" cx="256.2" cy="310.2" r="61.1"/>
  <path class="st0" d="M287.9,295.8h-17.5v-17.5c0-5.5-4.4-9.9-9.9-9.9h-9.3c-5.5,0-9.9,4.4-9.9,9.9v17.5h-17.5c-5.5,0-9.9,4.4-9.9,9.9v9.3c0,5.5,4.4,9.9,9.9,9.9h17.5v17.5c0,5.5,4.4,9.9,9.9,9.9h9.3c5.5,0,9.9-4.4,9.9-9.9v-17.5h17.5c5.5,0,9.9-4.4,9.9-9.9v-9.3c0-5.5-4.4-9.9-9.9-9.9Z"/>
</svg>