<?xml version="1.0" encoding="UTF-8"?>
<svg id="Layer_1" xmlns="http://www.w3.org/2000/svg" version="1.1" viewBox="0 0 989.9 392.6">
  <!-- Generator: Adobe Illustrator 29.5.1, SVG Export Plug-In . SVG Version: 2.1.0 Build 141)  -->
  <defs>
    <style>
      .st0 {
        fill: #fff;
      }

      .st1 {
        fill: #c1272d;
      }

      .st2 {
        fill: #0f4e73;
      }
    </style>
  </defs>
  <g>
    <g>
      <path class="st2" d="M340.6,104.7l-124.2-68.1c-9-5-19.8-5-28.9,0L63.4,104.7c-9.6,5.3-15.6,15.4-15.6,26.3v134.4c0,11,6,21,15.6,26.3l124.2,68.1c4.4,2.4,9.4,3.7,14.4,3.7s10-1.3,14.4-3.7l124.2-68.1c9.6-5.3,15.6-15.4,15.6-26.3v-134.4c0-11-6-21-15.6-26.3ZM335.7,131v134.4c0,3.5-1.9,6.6-4.9,8.3l-124.2,68.1c-2.8,1.6-6.2,1.6-9.1,0l-124.2-68.1c-3-1.7-4.9-4.8-4.9-8.3v-134.4c0-3.5,1.9-6.6,4.9-8.3l124.2-68.1c1.4-.8,3-1.2,4.5-1.2s3.1.4,4.5,1.2l124.2,68.1c3,1.7,4.9,4.8,4.9,8.3Z"/>
      <path class="st2" d="M283.1,173.4c-.5-32.6-27.2-59-59.9-59s-43.3,12.8-53.4,32.8c-.7,0-1.4,0-2.1,0-15.9,0-29.9,10.3-34.7,25.4-1.4-.1-2.9-.2-4.3-.2-26,0-47.1,21.1-47.1,47.1s16.6,42.8,39.5,46.5c1.1.4,2.3.6,3.6.6h51.5c7.1,16.8,23.8,28.7,43.1,28.7s36.1-11.9,43.1-28.7h12.7c.6,0,1.3,0,1.9-.2,11.7-1,22.6-6.3,30.6-15,8-8.7,12.5-20.1,12.5-31.9,0-22.2-15.4-41.3-36.9-46ZM219.2,201.7c-24.9,0-45.2,19.5-46.7,44h-45.8c-.3,0-.7-.1-1-.2-13.3-1.5-23.3-12.7-23.3-26.1s11.8-26.2,26.2-26.2,6.4.6,9.4,1.7c3.3,1.3,7,.8,9.9-1.3,2.9-2.1,4.5-5.5,4.2-9.1,0-.3,0-.7,0-1,0-8.6,7-15.5,15.5-15.5s3.5.3,5.1.9c2.6.9,5.6.7,8.1-.5,2.5-1.2,4.4-3.5,5.3-6.1,5.2-16.1,20.2-27,37.1-27s39,17.5,39,39-.2,4.4-.6,6.7c-.5,3.1.3,6.2,2.4,8.6,2.1,2.4,5.1,3.7,8.2,3.6h.4c0,0,.2,0,.3,0,14.5,0,26.2,11.8,26.2,26.2s-10.8,25.4-24.7,26.2h0c-.2,0-.4,0-.6,0h-8c-1.5-24.5-21.8-44-46.7-44Z"/>
    </g>
    <circle class="st1" cx="219.3" cy="248.4" r="47.2"/>
    <path class="st0" d="M243.8,237.2h-13.5v-13.5c0-4.2-3.4-7.6-7.6-7.6h-7.2c-4.2,0-7.6,3.4-7.6,7.6v13.5h-13.5c-4.2,0-7.6,3.4-7.6,7.6v7.2c0,4.2,3.4,7.6,7.6,7.6h13.5v13.5c0,4.2,3.4,7.6,7.6,7.6h7.2c4.2,0,7.6-3.4,7.6-7.6v-13.5h13.5c4.2,0,7.6-3.4,7.6-7.6v-7.2c0-4.2-3.4-7.6-7.6-7.6Z"/>
  </g>
  <g>
    <path class="st2" d="M489.4,223.5c-1.4,0-3,.4-4.8,1.2-3.6,1.8-7.9,2.8-12.9,2.8-8.3,0-15.1-2.5-20.2-7.4-5.1-4.9-7.7-12.2-7.7-21.8s1.1-10.6,3.4-15c2.2-4.3,5.5-7.6,9.6-10,4.2-2.4,9.2-3.6,14.8-3.6s8.9.9,12.8,2.8c1.7.9,3.4,1.3,5,1.3,2.6,0,4.8-1.1,6.4-3.3,1.5-2,2.2-4,2.2-6.1,0-3.5-1.6-6.2-4.8-7.8-6.7-3.4-14-5.1-21.8-5.1s-17.2,2-24.4,6c-7.2,4-12.9,9.6-17,16.7-4.1,7.1-6.1,15.2-6.1,24.1s2.2,18.7,6.5,25.8c4.3,7.1,10.1,12.6,17.3,16.2,7.2,3.6,15.1,5.5,23.7,5.5s15.1-1.7,21.8-5.1c1.5-.7,2.7-1.8,3.6-3.1.8-1.3,1.2-2.9,1.2-4.5s-.8-4.3-2.3-6.2c-1.8-2.2-4.1-3.4-6.8-3.4Z"/>
    <path class="st2" d="M518.2,147c-2.6,0-4.8.9-6.6,2.7-1.8,1.8-2.7,4-2.7,6.6v78.9c0,2.6.9,4.8,2.6,6.6,1.7,1.8,3.9,2.7,6.4,2.7s4.8-.9,6.6-2.7c1.8-1.8,2.7-4,2.7-6.6v-78.9c0-2.6-.9-4.8-2.6-6.6-1.7-1.8-3.9-2.7-6.4-2.7Z"/>
    <path class="st2" d="M557.5,151.4c-1.5-1.2-3.8-1.7-7.2-1.7s-5.5.6-7,1.7c-1.7,1.2-2.5,3.3-2.5,6.2v2.4c0,2.9.8,4.9,2.4,6.2,1.5,1.2,3.8,1.7,7.1,1.7s5.7-.5,7.2-1.6c1.6-1.2,2.5-3.3,2.5-6.3v-2.4c0-2.9-.8-4.9-2.4-6.2Z"/>
    <path class="st2" d="M550.4,173.2c-2.6,0-4.8.9-6.6,2.7-1.7,1.8-2.6,4-2.6,6.6v52.8c0,2.6.9,4.8,2.6,6.6,1.7,1.8,3.9,2.7,6.6,2.7s4.8-.9,6.6-2.7c1.7-1.8,2.6-4,2.6-6.6v-52.8c0-2.6-.9-4.8-2.6-6.6-1.7-1.8-3.9-2.7-6.6-2.7Z"/>
    <path class="st2" d="M610.3,171.9c-4.7,0-9,1.2-13,3.5-2.6,1.6-4.9,3.3-6.9,5.3-.3-1.9-1.1-3.5-2.5-4.9-1.7-1.8-3.9-2.7-6.6-2.7s-4.8.9-6.6,2.7c-1.7,1.8-2.6,4-2.6,6.6v52.8c0,2.6.9,4.8,2.6,6.6,1.7,1.8,3.9,2.7,6.6,2.7s4.8-.9,6.6-2.7c1.7-1.8,2.6-4,2.6-6.6v-32.7c0-4,1.2-7.2,3.8-9.7,2.5-2.6,6-3.8,10.6-3.8s7.2,1.1,8.9,3.4c1.8,2.4,2.6,5.8,2.6,10.2v32.7c0,2.6.9,4.8,2.6,6.6,1.7,1.8,3.9,2.7,6.6,2.7s4.8-.9,6.6-2.7c1.7-1.8,2.6-4,2.6-6.6v-32.7c0-9.4-1.8-16.8-5.2-22.2-3.6-5.6-10.1-8.4-19.3-8.4Z"/>
    <path class="st2" d="M734.8,175.9c-1.7-1.8-3.8-2.7-6.3-2.7s-4,.5-5.5,1.4c-1.6,1-2.7,2.5-3.3,4.4l-12.3,33-8.5-23c-.8-1.8-1.8-3.3-2.9-4.2-1.2-1-3-1.5-5.1-1.5-3.9,0-6.8,1.9-8.4,5.7l-8.7,23.5-12.4-33.5c-.6-1.9-1.7-3.4-3.2-4.4-1.5-1-3.2-1.5-5.2-1.5s-5,1-6.7,2.9c-1.7,1.9-2.5,4.1-2.5,6.6s.2,2.4.6,3.5l19.5,52.6c.6,1.8,1.7,3.3,3.3,4.4,1.6,1.1,3.3,1.6,5.1,1.6h1.1c3.5-.3,6.1-2.3,7.8-5.8l9-27.4,9.4,27.2v.2c1.8,3.6,4.4,5.5,7.7,5.7h1c0,.1.2.1.2.1,1.8,0,3.6-.5,5.1-1.6,1.6-1.1,2.7-2.6,3.3-4.4l19.5-52.6h0c.4-1.5.6-2.6.6-3.5,0-2.7-.8-4.9-2.5-6.7h0Z"/>
    <path class="st2" d="M810.3,174.5c-1.7-1.7-3.9-2.6-6.6-2.6s-4.8.9-6.6,2.7c-1.1,1.1-1.8,2.4-2.2,3.8-2.1-1.6-4.6-3-7.4-4.2-3.7-1.6-7.8-2.4-12.1-2.4s-11.5,1.6-16.5,4.8c-4.9,3.2-8.9,7.6-11.7,13.2-2.8,5.6-4.2,12-4.2,19s1.5,13.4,4.3,19c2.9,5.6,6.9,10,11.8,13.2,5,3.2,10.6,4.8,16.8,4.8s8.3-.9,12.1-2.8c2.7-1.3,5.1-2.8,7-4.6.4,1.3,1.1,2.4,2.1,3.4,1.7,1.7,3.9,2.6,6.5,2.6s4.8-.9,6.6-2.7c1.7-1.8,2.6-4,2.6-6.6v-54c0-2.7-.9-4.9-2.6-6.7h0ZM795.3,208.9c0,5.7-1.6,10.5-4.9,14.3-3.2,3.7-7.3,5.5-12.4,5.5s-9.2-1.8-12.3-5.5c-3.2-3.7-4.8-8.6-4.8-14.3s1.6-10.6,4.9-14.4c3.2-3.8,7.2-5.6,12.3-5.6s9.2,1.8,12.4,5.6c3.2,3.8,4.9,8.6,4.9,14.4Z"/>
    <path class="st2" d="M871,174.4h0c-2-1.7-4.5-2.5-7.4-2.5-4.4,0-8.6,1-12.4,2.9-2.6,1.3-4.8,3-6.6,5.1-.4-1.5-1.2-2.8-2.3-4-1.7-1.8-3.9-2.7-6.6-2.7s-4.8.9-6.6,2.7c-1.7,1.8-2.6,4-2.6,6.6v52.8c0,2.6.9,4.8,2.6,6.6,1.7,1.8,3.9,2.7,6.6,2.7s4.8-.9,6.6-2.7c1.7-1.8,2.6-4,2.6-6.6v-30.3c0-3.6.6-6.7,1.8-9.3,1.2-2.5,2.7-4.4,4.5-5.6,1.8-1.2,3.6-1.8,5.6-1.8s1.7.1,2.5.3c.9.2,1.4.4,1.6.5,4.5,1.7,8.1,1.2,10.8-1.4,1.7-1.6,2.5-4,2.5-7s-1.1-4.5-3.2-6.3Z"/>
    <path class="st2" d="M938.8,189.6c-3.1-5.4-7.3-9.7-12.5-12.9-5.2-3.2-10.8-4.8-16.7-4.8s-11.6,1.6-16.9,4.6c-5.2,3.1-9.5,7.5-12.7,13.3-3.2,5.7-4.8,12.5-4.8,20s1.5,13,4.5,18.4c3,5.5,7.4,9.8,12.9,12.9,5.5,3.1,12.1,4.7,19.4,4.7s8.5-.7,12.6-2.1c4.2-1.4,7.5-3.2,10-5.2,2.8-2.2,4.2-4.7,4.2-7.4s-.8-4-2.4-5.5c-2.7-2.7-6.6-3.1-10.7-1h0c-.4.3-1.2.8-2.4,1.5-1,.7-2.5,1.3-4.3,1.9-1.8.6-4.4.9-7.7.9s-8.1-1.3-11.5-4c-3-2.3-4.9-5.3-6-9.1h40.2c2.4,0,4.5-.8,6.3-2.3,1.9-1.6,2.9-3.6,3-6.1,0-6.3-1.6-12.2-4.7-17.6ZM894.1,199.9c2-7.3,7.1-10.9,15.6-10.9s6.9,1.1,9.8,3.5c2.6,2.1,4.1,4.6,4.6,7.4h-30Z"/>
  </g>
</svg>